#!OML:ASF X:\für Bonn\!DataBase\2005_08_12_Daniel\c3d\Daniel.ASF
:FULLY-SPECIFIED
:DEGREES
16
root 1.99726 16.9854 4.53701 175.865 -184.681 542.31
lowerback 8.00025 1.30445 -2.39559
upperback -0.0403404 1.35578 -3.50315
thorax -4.50449 0.687723 -2.45549
lowerneck -2.24815 -0.611255 -2.77603
upperneck 11.35 -0.797394 1.49747
head 4.13652 -0.440321 0.956651
rclavicle -1.30452e-014 -1.27222e-014
rhumerus -41.6741 7.46524 -100.215
rradius 44.3676
rwrist 0.395812
rhand -15.3103 14.7323
rfingers 7.12502
rthumb 10.8655 -14.9666
lclavicle -1.30452e-014 -1.27222e-014
lhumerus -64.073 48.7506 37.6533
lradius 18.8664
lwrist -41.3005
lhand -9.13604 -4.89328
lfingers 7.12502
lthumb 16.8155 24.3986
rfemur 23.175 -1.09366 19.4262
rtibia 24.8299
rfoot -4.66293 5.93141
rtoes 0.0902167
lfemur -28.4532 -8.97799 -23.8317
ltibia 37.5534
lfoot -6.39088 3.36802
ltoes 0.552553
17
root 2.02734 16.994 4.71994 175.722 -184.726 542.678
lowerback 8.02516 1.34902 -2.8136
upperback 0.00228039 1.37149 -3.62102
thorax -4.48122 0.703407 -2.34553
lowerneck -2.23855 -0.648454 -2.91484
upperneck 11.3342 -0.848724 1.58846
head 4.1327 -0.467488 1.00965
rclavicle 4.89507e-015 5.56597e-015
rhumerus -41.5896 7.49206 -100.258
rradius 44.8729
rwrist 0.219415
rhand -15.3652 14.8182
rfingers 7.12502
rthumb 10.8125 -14.8835
lclavicle 4.89507e-015 5.56597e-015
lhumerus -64.3554 48.8426 37.6269
lradius 18.9396
lwrist -41.3225
lhand -8.89112 -4.73319
lfingers 7.12502
lthumb 17.0512 24.5385
rfemur 21.378 -1.88708 18.2966
rtibia 28.6708
rfoot -2.35083 6.17694
rtoes -0.437121
lfemur -27.7754 -8.80083 -24.4629
ltibia 37.9377
lfoot -6.82012 3.13123
ltoes 0.868636
18
root 2.05696 17.0071 4.90044 175.569 -184.769 543.044
lowerback 8.06626 1.39433 -3.21426
upperback 0.0452486 1.38884 -3.7398
thorax -4.46642 0.719348 -2.24722
lowerneck -2.1945 -0.689976 -3.09576
upperneck 11.3173 -0.907588 1.71049
head 4.12297 -0.498903 1.08028
rclavicle 3.91606e-014 -1.03368e-014
rhumerus -41.4679 7.52716 -100.274
rradius 45.4346
rwrist 0.0978194
rhand -15.3571 14.9303
rfingers 7.12502
rthumb 10.8203 -14.771
lclavicle 3.91606e-014 -1.03368e-014
lhumerus -64.6275 48.9682 37.5803
lradius 19.0082
lwrist -41.3705
lhand -8.64339 -4.54126
lfingers 7.12502
lthumb 17.2897 24.7097
rfemur 19.5692 -2.5726 17.2296
rtibia 32.4334
rfoot 0.214113 6.16153
rtoes -1.37528
lfemur -27.0119 -8.61161 -25.0852
ltibia 38.2205
lfoot -7.32736 2.87812
ltoes 1.05871
19
root 2.08655 17.0213 5.07713 175.411 -184.828 543.41
lowerback 8.13155 1.43303 -3.59343
upperback 0.0872044 1.39715 -3.86969
thorax -4.46574 0.730163 -2.1726
lowerneck -2.11436 -0.737258 -3.2584
upperneck 11.2639 -0.976361 1.8318
head 4.09339 -0.534459 1.14676
rclavicle 1.37907e-014 5.64548e-014
rhumerus -41.3115 7.65322 -100.302
rradius 46.0645
rwrist 0.00734496
rhand -15.2965 15.0122
rfingers 7.12502
rthumb 10.8788 -14.686
lclavicle 1.37907e-014 5.64548e-014
lhumerus -64.927 49.1772 37.4156
lradius 19.0285
lwrist -41.5047
lhand -8.47122 -4.31505
lfingers 7.12502
lthumb 17.4554 24.9212
rfemur 17.7632 -3.16982 16.2307
rtibia 36.1232
rfoot 2.79288 5.9617
rtoes -2.31502
lfemur -26.2191 -8.43318 -25.7072
ltibia 38.446
lfoot -7.88787 2.61445
ltoes 1.09812
20
root 2.11611 17.0347 5.2484 175.244 -184.893 543.761
lowerback 8.22786 1.4709 -3.93561
upperback 0.12644 1.4053 -3.99736
thorax -4.48455 0.740169 -2.11771
lowerneck -2.03258 -0.786071 -3.44881
upperneck 11.2427 -1.04875 1.98003
head 4.07626 -0.572007 1.22743
rclavicle 2.13818e-014 -2.54444e-014
rhumerus -41.1604 7.87499 -100.315
rradius 46.7988
rwrist -0.110451
rhand -15.2154 15.0544
rfingers 7.12502
rthumb 10.957 -14.6397
lclavicle 2.13818e-014 -2.54444e-014
lhumerus -65.2541 49.4543 37.1455
lradius 19.0172
lwrist -41.7319
lhand -8.28944 -4.1848
lfingers 7.12502
lthumb 17.6303 25.0359
rfemur 15.9905 -3.65823 15.3154
rtibia 39.7037
rfoot 5.06479 5.70294
rtoes -3.57947
lfemur -25.425 -8.2678 -26.3071
ltibia 38.6424
lfoot -8.45982 2.36544
ltoes 1.13525
21
root 2.14591 17.0452 5.41364 175.07 -184.976 544.088
lowerback 8.36334 1.49955 -4.24074
upperback 0.161334 1.40126 -4.11783
thorax -4.52925 0.743605 -2.07622
lowerneck -1.9053 -0.827793 -3.60774
upperneck 11.204 -1.11151 2.09366
head 4.04309 -0.605113 1.29109
rclavicle 9.86469e-015 -2.46493e-014
rhumerus -40.9705 8.18473 -100.326
rradius 47.5748
rwrist -0.19765
rhand -15.1217 15.0558
rfingers 7.12502
rthumb 11.0474 -14.6335
lclavicle 9.86469e-015 -2.46493e-014
lhumerus -65.3314 49.6186 37.1476
lradius 18.9978
lwrist -41.7496
lhand -8.179 -4.04797
lfingers 7.12502
lthumb 17.7366 25.1631
rfemur 14.2531 -4.13518 14.4459
rtibia 43.1376
rfoot 7.11746 5.44446
rtoes -5.05658
lfemur -24.6436 -8.11849 -26.8776
ltibia 38.8337
lfoot -9.05459 2.10974
ltoes 1.1867
22
root 2.17532 17.0569 5.57472 174.92 -185.056 544.418
lowerback 8.5005 1.5296 -4.539
upperback 0.180571 1.3978 -4.23579
thorax -4.59116 0.747497 -2.03678
lowerneck -1.74328 -0.862677 -3.74538
upperneck 11.1472 -1.16586 2.18951
head 3.99612 -0.634034 1.34516
rclavicle -7.8023e-015 1.27222e-014
rhumerus -40.7474 8.4445 -100.286
rradius 48.3598
rwrist -0.138369
rhand -15.0518 15.1064
rfingers 7.12502
rthumb 11.1148 -14.5793
lclavicle -7.8023e-015 1.27222e-014
lhumerus -65.431 49.7975 37.0945
lradius 18.9699
lwrist -41.8709
lhand -8.11418 -4.01626
lfingers 7.12502
lthumb 17.799 25.1892
rfemur 12.5187 -4.55849 13.608
rtibia 46.4014
rfoot 8.86747 5.19998
rtoes -7.01108
lfemur -23.8882 -7.96424 -27.4389
ltibia 39.0066
lfoot -9.67036 1.83613
ltoes 1.15336
23
root 2.20492 17.0687 5.7341 174.748 -185.147 544.722
lowerback 8.65238 1.55844 -4.78052
upperback 0.212375 1.39679 -4.35938
thorax -4.64658 0.751279 -2.03563
lowerneck -1.57676 -0.897711 -3.85951
upperneck 11.0927 -1.2211 2.27479
head 3.94899 -0.662954 1.39148
rclavicle 1.59773e-014 -2.62396e-014
rhumerus -40.4843 8.6963 -100.222
rradius 49.181
rwrist 0.00293849
rhand -15.0472 15.2079
rfingers 7.12502
rthumb 11.1192 -14.4775
lclavicle 1.59773e-014 -2.62396e-014
lhumerus -65.3779 49.9412 37.1871
lradius 18.9676
lwrist -41.8791
lhand -8.05354 -4.00821
lfingers 7.12502
lthumb 17.8573 25.1919
rfemur 10.8694 -4.95501 12.8172
rtibia 49.471
rfoot 10.1858 4.98175
rtoes -9.15927
lfemur -23.1051 -7.81727 -27.9753
ltibia 39.1426
lfoot -10.2596 1.59652
ltoes 1.20792
24
root 2.23402 17.0792 5.89037 174.582 -185.244 545
lowerback 8.80537 1.58879 -4.99309
upperback 0.244684 1.40002 -4.47729
thorax -4.70148 0.756641 -2.0455
lowerneck -1.40246 -0.93174 -3.9359
upperneck 11.0256 -1.27671 2.35307
head 3.89548 -0.690807 1.42861
rclavicle 1.95554e-014 -3.57812e-014
rhumerus -40.1458 8.94915 -100.118
rradius 49.9912
rwrist 0.187488
rhand -15.1448 15.2602
rfingers 7.12502
rthumb 11.0251 -14.4302
lclavicle 1.95554e-014 -3.57812e-014
lhumerus -65.0944 49.986 37.5359
lradius 18.98
lwrist -41.7579
lhand -8.04292 -4.0609
lfingers 7.12502
lthumb 17.8675 25.1383
rfemur 9.227 -5.30151 12.1007
rtibia 52.3571
rfoot 11.0194 4.85967
rtoes -10.7057
lfemur -22.3181 -7.68614 -28.479
ltibia 39.212
lfoot -10.794 1.37573
ltoes 1.24115
25
root 2.26372 17.0919 6.04511 174.417 -185.343 545.255
lowerback 8.95859 1.61176 -5.17096
upperback 0.271995 1.39632 -4.58465
thorax -4.76107 0.758059 -2.06314
lowerneck -1.22865 -0.962554 -4.00127
upperneck 10.9662 -1.32557 2.39979
head 3.84415 -0.71626 1.4535
rclavicle 2.81032e-014 2.22639e-014
rhumerus -39.7816 9.22852 -99.9787
rradius 50.8163
rwrist 0.428709
rhand -15.3746 15.3658
rfingers 7.12502
rthumb 10.8035 -14.3363
lclavicle 2.81032e-014 2.22639e-014
lhumerus -64.7816 50.0207 37.9184
lradius 19.0087
lwrist -41.6624
lhand -8.07694 -4.13557
lfingers 7.12502
lthumb 17.8348 25.0666
rfemur 7.60428 -5.6385 11.4291
rtibia 55.0653
rfoot 11.3599 4.92736
rtoes -11.6008
lfemur -21.5051 -7.53917 -28.9526
ltibia 39.2149
lfoot -11.2833 1.16718
ltoes 1.40825
26
root 2.29316 17.1071 6.19773 174.244 -185.447 545.497
lowerback 9.13149 1.633 -5.32036
upperback 0.299335 1.39074 -4.6949
thorax -4.83086 0.758047 -2.10034
lowerneck -1.05362 -0.989639 -4.06114
upperneck 10.9058 -1.37158 2.46364
head 3.79255 -0.739436 1.48333
rclavicle -3.71479e-014 -3.18055e-015
rhumerus -39.3763 9.53923 -99.8189
rradius 51.6877
rwrist 0.61961
rhand -15.7178 15.4404
rfingers 7.12502
rthumb 10.4723 -14.2787
lclavicle -3.71479e-014 -3.18055e-015
lhumerus -64.3059 49.9824 38.4946
lradius 19.0831
lwrist -41.5165
lhand -8.16985 -4.19485
lfingers 7.12502
lthumb 17.7454 25.0155
rfemur 6.00317 -5.94488 10.7967
rtibia 57.6082
rfoot 11.2768 5.06623
rtoes -12.0558
lfemur -20.6489 -7.43184 -29.406
ltibia 39.1564
lfoot -11.7414 1.00702
ltoes 1.56702
27
root 2.32259 17.124 6.34873 174.078 -185.539 545.716
lowerback 9.28904 1.66047 -5.44899
upperback 0.329026 1.39696 -4.79563
thorax -4.88925 0.763397 -2.14028
lowerneck -0.904662 -1.02296 -4.08191
upperneck 10.8594 -1.42345 2.49179
head 3.75016 -0.765327 1.49411
rclavicle -1.46355e-014 3.57812e-014
rhumerus -38.9168 9.86339 -99.6142
rradius 52.5757
rwrist 0.839519
rhand -16.1932 15.5041
rfingers 7.12502
rthumb 10.0138 -14.2377
lclavicle -1.46355e-014 3.57812e-014
lhumerus -63.5861 49.8252 39.3767
lradius 19.1959
lwrist -41.2013
lhand -8.25814 -4.27858
lfingers 7.12502
lthumb 17.6604 24.9394
rfemur 4.40447 -6.21267 10.2242
rtibia 59.9656
rfoot 10.7349 5.2845
rtoes -12.6195
lfemur -19.7893 -7.31085 -29.8286
ltibia 39.0608
lfoot -12.1824 0.867802
ltoes 1.68955
